# xmcd CD database file
#
# Track frame offsets:
#	182
#	17097
#	31802
#	40962
#	53400
#	66812
#	78962
#	92360
#	106480
#	123352
#	137022
#	149135
#	160670
#	173795
#	179745
#	192087
#
# Disc length: 2693 seconds
#
# Revision: 0
# Processed by: cddbd v1.4PL0 Copyright (c) Steve Scherf et al.
# Submitted via: Feurio! 1.65 - http://www.feurio.com
#
DISCID=d10a8310
DTITLE=Big Joe Williams - Hand Me Down My Old Walking Stick 1968 London 
DTITLE=Sessions
DYEAR=1968
DGENRE=Blues
TTITLE0=Hand Me Down My Old Walking Stick
TTITLE1=Mamma Don't Like Me Runnin' Round
TTITLE2=Baby Plese Don't Go
TTITLE3=Everybody's Gonna Miss Me When I'm Gone
TTITLE4=Buffalo
TTITLE5=Church Bell Ring
TTITLE6=Baby Keeps On Breaking 'em Down
TTITLE7=Shady Grove
TTITLE8=Sittin' 'N' Thinkin'
TTITLE9=Blues Round The World
TTITLE10=Oh Baby
TTITLE11=Pearly Mae
TTITLE12=Scardie Mama
TTITLE13=She'll Be Coming Round The Mountain
TTITLE14=Old Folks Tavern
TTITLE15=Take It All
EXTD=ARD Sequel records NEXCD 208
EXTT0=
EXTT1=
EXTT2=
EXTT3=
EXTT4=
EXTT5=
EXTT6=
EXTT7=
EXTT8=
EXTT9=
EXTT10=
EXTT11=
EXTT12=
EXTT13=
EXTT14=
EXTT15=
PLAYORDER=
